<svg width="142" height="123" viewBox="0 0 142 123" fill="none" xmlns="http://www.w3.org/2000/svg">
<path d="M128.852 18.4615H106.5L101.175 3.49451C100.807 2.47035 100.133 1.58508 99.2446 0.959631C98.3562 0.334177 97.297 -0.00096036 96.2116 2.06708e-06H45.7884C43.5697 2.06708e-06 41.581 1.4011 40.8414 3.49451L35.5 18.4615H13.1481C5.8838 18.4615 0 24.3626 0 31.6484V106.813C0 114.099 5.8838 120 13.1481 120H128.852C136.116 120 142 114.099 142 106.813V31.6484C142 24.3626 136.116 18.4615 128.852 18.4615ZM71 93.6264C56.4713 93.6264 44.7037 81.8242 44.7037 67.2527C44.7037 52.6813 56.4713 40.8791 71 40.8791C85.5287 40.8791 97.2963 52.6813 97.2963 67.2527C97.2963 81.8242 85.5287 93.6264 71 93.6264ZM55.2222 67.2527C55.2222 71.4496 56.8845 75.4745 59.8434 78.4421C62.8023 81.4097 66.8155 83.0769 71 83.0769C75.1845 83.0769 79.1977 81.4097 82.1566 78.4421C85.1155 75.4745 86.7778 71.4496 86.7778 67.2527C86.7778 63.0559 85.1155 59.031 82.1566 56.0634C79.1977 53.0958 75.1845 51.4286 71 51.4286C66.8155 51.4286 62.8023 53.0958 59.8434 56.0634C56.8845 59.031 55.2222 63.0559 55.2222 67.2527Z" fill="#00A26A"/>
<rect x="25" y="31" width="92" height="70" fill="#00A26A"/>
<path d="M85.7344 73.3594L99.9844 30.75H116.203L91.4531 99H74.8594L72.0938 60.3281L57.375 99H40.7812L37.3594 30.75H52.9688L53.9062 73.1719L69.5625 30.75H83.2031L85.7344 73.3594Z" fill="#E5E5E5"/>
</svg>
